<?xml version="1.0" standalone="no"?><!DOCTYPE svg PUBLIC "-//W3C//DTD SVG 1.1//EN" "http://www.w3.org/Graphics/SVG/1.1/DTD/svg11.dtd"><svg t="1588335744968" class="icon" viewBox="0 0 1398 1024" version="1.1" xmlns="http://www.w3.org/2000/svg" p-id="1381" xmlns:xlink="http://www.w3.org/1999/xlink" width="273.046875" height="200"><defs><style type="text/css"></style></defs><path d="M1094.7707 425.653513a149.836318 149.836318 0 0 0-222.132341-198.533121A299.672635 299.672635 0 0 0 309.753259 425.403786 274.699916 274.699916 0 0 0 324.736891 974.054436h749.181588a274.699916 274.699916 0 0 0 20.852221-548.400923z" fill="#FFFFFF" p-id="1382"></path><path d="M136.567448 899.136277A273.45128 273.45128 0 0 0 324.736891 974.054436h749.181588a273.45128 273.45128 0 0 0 188.169443-74.918159z" fill="#86AEDD" p-id="1383"></path><path d="M387.16869 899.136277h24.972719v-24.97272h-24.972719z m49.945439 0h24.97272v-24.97272h-24.97272z m-99.890879 0h24.97272v-24.97272h-24.97272z m-199.781756 0h24.972719v-24.97272h-24.972719z m449.508953 0h24.972719v-24.97272h-24.972719z m-299.672636 0h24.97272v-24.97272h-24.97272z m199.781757 0h24.97272v-24.97272h-24.97272z m49.945439 0h24.97272v-24.97272h-24.97272z m-324.645355-49.945439v24.972719h24.97272v-24.972719z m1048.854224 24.972719h24.97272v-24.972719h-24.97272z m-1023.881504 24.97272h24.97272v-24.97272h-24.97272z m774.154308-49.945439v24.972719h24.97272v-24.972719z m-799.127028 49.945439v-24.97272h-24.972719v24.97272z m49.94544-49.945439v24.972719h24.972719v-24.972719z m374.590794 49.945439h24.97272v-24.97272h-24.97272z m649.29071-74.918159v24.97272h17.855495c2.497272-3.870772 4.86968-7.866407 7.117225-11.862042V824.218118z m-1023.881504 0h-24.97272v24.97272h24.97272z m824.099747 74.918159h24.97272v-24.97272h-24.97272z m49.945439 0h24.97272v-24.97272h-24.97272z m99.890879 0h24.972719v-24.97272h-24.972719z m-49.945439 0h24.972719v-24.97272h-24.972719z m-1023.881505-74.918159h-24.972719v24.97272h24.972719z m149.836318 24.97272v24.972719h24.972719v-24.972719z m-124.863598 0h24.972719v-24.97272h-24.972719z m-74.918159 0v24.972719h24.97272v-24.972719z m49.945439 24.972719h24.97272v-24.972719h-24.97272z m824.099748 24.97272h24.972719v-24.97272h-24.972719z m-149.836318 0h24.97272v-24.97272h-24.97272z m-49.945439 0h24.972719v-24.97272h-24.972719z m-49.94544 0h24.97272v-24.97272h-24.97272zM87.496054 824.218118v13.110678c2.372408 3.995635 4.619953 7.99127 7.117225 11.862042H112.468774v-24.97272z m948.963346 74.918159h24.972719v-24.97272h-24.972719z m-149.836318 0h24.97272v-24.97272h-24.97272z m-199.781757 0h24.97272v-24.97272h-24.97272z m249.727196 0h24.97272v-24.97272h-24.97272z m-624.31799-74.918159h-24.97272v24.97272h24.97272z m449.508953 24.97272v24.972719h24.97272v-24.972719z m49.945439-24.97272h-24.972719v24.97272h24.972719z m-99.890878 0h-24.97272v24.97272h24.97272z m149.836318 0h-24.97272v24.97272h24.97272z m-49.94544 24.97272v24.972719h24.97272v-24.972719z m349.618075-24.97272h-24.97272v24.97272h24.97272z m-49.945439 24.97272v24.972719h24.972719v-24.972719z m-399.563514 0v24.972719h24.972719v-24.972719z m49.945439-24.97272h-24.97272v24.97272h24.97272z m349.618075 0h-24.97272v24.97272h24.97272z m-249.727196 24.97272v24.972719h24.972719v-24.972719z m99.890878-24.97272h-24.97272v24.97272h24.97272z m49.945439 0h-24.972719v24.97272h24.972719z m49.945439 0h-24.972719v24.97272h24.972719z m-99.890878 24.97272v24.972719h24.97272v-24.972719z m-49.945439-24.97272h-24.97272v24.97272h24.97272z m0 24.97272v24.972719h24.972719v-24.972719z m149.836317 0v24.972719h24.97272v-24.972719z m-499.454392 0v24.972719h24.97272v-24.972719z m-99.890878-24.97272h-24.97272v24.97272h24.97272z m749.181588 24.97272v24.972719h24.97272v-24.972719z m-749.181588 0v24.972719h24.972719v-24.972719z m49.945439-24.97272h-24.97272v24.97272h24.97272z m-99.890879 24.97272v24.972719h24.97272v-24.972719z m-49.945439 0v24.972719h24.97272v-24.972719z m899.017906-24.97272h-24.972719v24.97272h24.972719z m-849.072467 0h-24.972719v24.97272h24.972719z m749.181589 24.97272v24.972719h24.97272v-24.972719z m-549.399832-24.97272h-24.972719v24.97272h24.972719z m0 24.97272v24.972719h24.97272v-24.972719z m49.94544 0v24.972719h24.972719v-24.972719z m-149.836318 0v24.972719h24.972719v-24.972719z m149.836318-24.97272h-24.97272v24.97272h24.97272z m-99.890879 0h-24.97272v24.97272h24.97272z m649.29071 0h-24.972719v24.97272h24.972719z m-849.072467 0h-24.97272v24.97272h24.97272z" opacity=".1" p-id="1384"></path><path d="M25.064255 686.86816h149.836318v-24.972719H25.064255z m0 49.945439h74.918159v-24.972719H25.064255z m973.936065-362.104434h149.836318v-24.97272H999.00032z m74.918159-74.918159v24.97272h74.918159v-24.97272z" opacity=".15" p-id="1385"></path><path d="M1167.066723 388.319297a199.781757 199.781757 0 0 0-276.572869-232.371156A349.618075 349.618075 0 0 0 249.818732 349.736445c0 11.237724 0 22.350584 1.623227 33.338581A324.645355 324.645355 0 0 0 324.736891 1023.999875h749.181588a324.645355 324.645355 0 0 0 93.148244-635.680578zM1073.918479 974.054436H324.736891a274.699916 274.699916 0 0 1-15.358223-549.399832 299.672635 299.672635 0 0 1 563.384555-197.659076 149.836318 149.836318 0 0 1 222.132341 198.533121A274.699916 274.699916 0 0 1 1073.918479 974.054436z" opacity=".85" p-id="1386"></path></svg>